# xmcd CD database file
#
# Track frame offsets:
#	150
#	19291
#	33122
#	48957
#	71800
#	101390
#	119310
#	139204
#	156041
#	167967
#	187381
#	203159
#	222558
#	244780
#
# Disc length: 3542 seconds
#
# Revision: 0
# Processed by: cddbd v1.5.2PL0 Copyright (c) Steve Scherf et al.
# Submitted via: CDex 1.70beta2
#
DISCID=d00dd40e
DTITLE=Taro Yamamoto - New Olreans New Orleans
DYEAR=1900
DGENRE=Jazz
TTITLE0=When I grow too old to Dream
TTITLE1=I wonder who's kissing her now
TTITLE2=Runnin' wild
TTITLE3=The Mooch
TTITLE4=Bsin street Blues
TTITLE5=Everybody loves my baby
TTITLE6=Home
TTITLE7=My mondy date
TTITLE8=Black and blue
TTITLE9=Two sleepy people
TTITLE10=Dark town strutters' ball
TTITLE11=Georgia on my mind
TTITLE12=I guess I'll have to change my plan
TTITLE13=Do you know what it means to Miss New Orleans
EXTD=
EXTT0=
EXTT1=
EXTT2=
EXTT3=
EXTT4=
EXTT5=
EXTT6=
EXTT7=
EXTT8=
EXTT9=
EXTT10=
EXTT11=
EXTT12=
EXTT13=
PLAYORDER=
